<?xml version="1.0" standalone="no"?>
<!DOCTYPE svg PUBLIC "-//W3C//DTD SVG 20010904//EN"
 "http://www.w3.org/TR/2001/REC-SVG-20010904/DTD/svg10.dtd">
<svg version="1.0" xmlns="http://www.w3.org/2000/svg"
 width="700.000000pt" height="700.000000pt" viewBox="0 0 700.000000 700.000000"
 preserveAspectRatio="xMidYMid meet">
<metadata>
Created by potrace 1.14, written by Peter Selinger 2001-2017
</metadata>
<g transform="translate(0.000000,700.000000) scale(0.100000,-0.100000)"
fill="#000000" stroke="none">
<path d="M1405 6123 c-151 -21 -254 -71 -356 -172 -58 -58 -85 -94 -111 -151
-65 -137 -62 -79 -62 -1285 0 -1028 1 -1104 18 -1160 51 -172 154 -299 306
-378 40 -20 116 -43 175 -53 55 -9 1256 -9 1330 0 232 29 423 201 484 436 19
72 20 119 20 1155 0 661 -3 1097 -9 1125 -31 145 -80 233 -185 333 -55 52
-180 119 -260 138 -36 8 -232 12 -690 13 -352 1 -649 0 -660 -1z"/>
<path d="M3958 6109 c-127 -30 -210 -77 -296 -168 -68 -71 -117 -159 -141
-252 -18 -68 -20 -107 -18 -459 2 -365 4 -388 24 -449 71 -208 261 -371 467
-398 28 -4 404 -7 836 -7 715 0 791 2 853 17 172 45 303 152 382 312 33 68 38
83 52 170 13 77 8 736 -6 795 -51 216 -233 396 -446 441 -45 10 -251 13 -849
13 -693 1 -797 -1 -858 -15z"/>
<path d="M4067 4084 c-1 -1 -27 -4 -58 -7 -211 -23 -400 -177 -477 -388 l-27
-74 -2 -1110 c-3 -1233 -6 -1171 64 -1313 47 -95 144 -195 239 -244 61 -32 89
-42 179 -65 11 -3 373 -6 805 -7 859 -2 879 -1 997 55 160 76 273 213 319 384
18 66 19 127 18 1150 0 594 -4 1102 -8 1128 -36 244 -248 452 -491 483 -46 6
-1551 13 -1558 8z"/>
<path d="M1376 2618 c-128 -18 -231 -72 -332 -172 -76 -77 -130 -173 -155
-276 -19 -80 -20 -718 -1 -820 40 -220 220 -407 442 -461 74 -18 1294 -21
1398 -3 178 30 340 153 422 322 55 113 59 148 56 567 l-1 380 -27 71 c-71 195
-214 327 -409 380 -57 15 -130 17 -704 18 -352 1 -662 -2 -689 -6z"/>
</g>
</svg>
